# AST/ASF file generated using VICON BodyLanguage
# -----------------------------------------------
:version 1.10
:name VICON
:units
  mass 1.0
  length 0.45
  angle deg
:documentation
   .ast/.asf automatically generated from VICON data using
   VICON BodyBuilder and BodyLanguage model FoxedUp or BRILLIANT.MOD
:root
   order TX TY TZ RX RY RZ
   axis XYZ
   position 0 0 0  
   orientation 0 0 0 
:bonedata
  begin
     id 1 
     name lhipjoint
     direction 0.576517 -0.752066 0.319413 
     length 2.45433 
     axis 0 0 0  XYZ
  end
  begin
     id 2 
     name lfemur
     direction 0.34202 -0.939693 0  
     length 7.54459  
     axis 0 0 20  XYZ
    dof rx ry rz
    limits (-160.0 20.0)
           (-70.0 70.0)
           (-60.0 70.0)
  end
  begin
     id 3 
     name ltibia
     direction 0.34202 -0.939693 0   
     length 7.73986   
     axis 0 0 20   XYZ
    dof rx
    limits (-10.0 170.0)
  end
  begin
     id 4 
     name lfoot
     direction 0.090693 -0.249177 0.964202   
     length 2.28437   
     axis -90 7.62852e-016 20   XYZ
    dof rx rz
    limits (-45.0 90.0)
           (-70.0 20.0)
  end
  begin
     id 5 
     name ltoes
     direction 1.5356e-011 -4.21928e-011 1   
     length 1.14243   
     axis -90 7.62852e-016 20   XYZ
    dof rx
    limits (-90.0 20.0)
  end
  begin
     id 6 
     name rhipjoint
     direction -0.573937 -0.753736 0.320122   
     length 2.44889  
     axis 0 0 0  XYZ 
  end
  begin
     id 7 
     name rfemur
     direction -0.34202 -0.939693 0   
     length 7.50166   
     axis 0 0 -20   XYZ
    dof rx ry rz
    limits (-160.0 20.0)
           (-70.0 70.0)
           (-70.0 60.0)
  end
  begin
     id 8 
     name rtibia
     direction -0.34202 -0.939693 0   
     length 7.54266   
     axis 0 0 -20   XYZ
    dof rx
    limits (-10.0 170.0)
 end
 begin
     id 9 
     name rfoot
     direction -0.114017 -0.31326 0.942798   
     length 2.34212  
     axis -90 -7.62852e-016 -20   XYZ
    dof rx rz
    limits (-45.0 90.0)
           (-20.0 70.0)
  end
  begin
     id 10 
     name rtoes
     direction -1.53557e-011 -4.21867e-011 1   
     length 1.16246   
     axis -90 -7.62852e-016 -20   XYZ
    dof rx
    limits (-90.0 20.0)
  end
  begin
     id 11 
     name lowerback
     direction -0.0228371 0.999155 -0.034167   
     length 2.0537   
     axis 0 0 0   XYZ
    dof rx ry rz
    limits (-20.0 45.0)
           (-30.0 30.0)
           (-30.0 30.0)
  end
  begin
     id 12 
     name upperback
     direction 0.0198981 0.999794 0.00389455   
     length 2.05302   
     axis 0 0 0   XYZ
    dof rx ry rz
    limits (-20.0 45.0)
           (-30.0 30.0)
           (-30.0 30.0)
  end
  begin
     id 13 
     name thorax
     direction 0.0304566 0.99935 0.0192987   
     length 2.05315   
     axis 0 0 0   XYZ
    dof rx ry rz
    limits (-20.0 45.0)
           (-30.0 30.0)
           (-30.0 30.0)
  end
  begin
     id 14 
     name lowerneck
     direction -0.0196762 0.99417 0.106017   
     length 1.82056   
     axis 0 0 0   XYZ
    dof rx ry rz
    limits (-20.0 45.0)
           (-30.0 30.0)
           (-30.0 30.0)
  end
  begin
     id 15 
     name upperneck
     direction 0.00517787 0.9802 -0.197944   
     length 1.83835   
     axis 0 0 0   XYZ
    dof rx ry rz
    limits (-20.0 45.0)
           (-30.0 30.0)
           (-30.0 30.0)
  end
  begin
     id 16
     name head
     direction 0.00211419 0.996945 -0.078081  
     length 1.85629  
     axis 0 0 0   XYZ
    dof rx ry rz
    limits (-20.0 45.0)
           (-30.0 30.0)
           (-30.0 30.0)
  end
  begin
     id 17 
     name lclavicle
     direction 0.930001 0.365811 -0.0357824  
     length 3.81961  
     axis 0 0 0   XYZ
    dof ry rz
    limits (-20.0 10.0)
           (0.0 20.0)
  end
  begin
     id 18 
     name lhumerus
     direction 1 -4.48968e-011 -3.06644e-027   
     length 5.14507   
     axis 180 -30 -90   XYZ
    dof rx ry rz
    limits (-60.0 90.0)
           (-90.0 90.0)
           (-90.0 90.0)
  end
  begin
     id 19
     name lradius
     direction 1 -4.48965e-011 9.06925e-028   
     length 3.50646   
     axis 180 -30 -90   XYZ
    dof rx
    limits (-10.0 170.0)
  end
  begin
     id 20
     name lwrist
     direction 1 -4.48957e-011 1.03922e-027   
     length 1.75323   
     axis -2.56395e-016 90 90   XYZ
    dof ry
    limits (-180.0 0.0)
 end
  begin
     id 21 
     name lhand
     direction 1 -4.48967e-011 2.08017e-027   
     length 0.629969   
     axis -1.32723e-015 90 90   XYZ
    dof rx rz
    limits (-90.0 90.0)
           (-45.0 45.0)
  end
  begin
     id 22 
     name lfingers
     direction 1 -4.49089e-011 4.20095e-027   
     length 0.507897   
     axis -2.6545e-015 90 90   XYZ
    dof rx
    limits (0.0 90.0)
  end
  begin
     id 23
     name lthumb
     direction 0.707107 -6.35001e-011 0.707107   
     length 0.729241   
     axis -90 45 5.05613e-014   XYZ
    dof rx rz
    limits (-45.0 45.0)
           (-45.0 45.0)
  end
  begin
     id 24 
     name rclavicle
     direction -0.881882 0.464123 -0.0829113   
     length 3.47515  
     axis 0 0 0   XYZ 
    dof ry rz
    limits (-10.0 20.0)
           (-20.0 0.0)
  end
  begin
     id 25 
     name rhumerus
     direction -1 -4.48961e-011 -1.55672e-027  
     length 5.232   
     axis 180 30 90   XYZ
    dof rx ry rz
    limits (-90.0 60.0)
           (-90.0 90.0)
           (-90.0 90.0)
  end
  begin
     id 26 
     name rradius
     direction -1 -4.48963e-011 6.18178e-029   
     length 3.65641   
     axis 180 30 90   XYZ
    dof rx
    limits (-10.0 170.0)
  end
  begin
     id 27 
     name rwrist
     direction -1 -4.48982e-011 1.04136e-027   
     length 1.8282   
     axis -2.56395e-016 -90 -90   XYZ
    dof ry
    limits (-180.0 0.0)
  end
  begin
     id 28
     name rhand
     direction -1 -4.48929e-011 2.07378e-027   
     length 0.656807   
     axis -1.32723e-015 -90 -90   XYZ
    dof rx rz
    limits (-90.0 90.0)
           (-45.0 45.0)
  end
  begin
     id 29
     name rfingers
     direction -1 -4.489e-011 4.13816e-027   
     length 0.529535   
     axis -2.6545e-015 -90 -90   XYZ
    dof rx
    limits (0.0 90.0)
  end
  begin
     id 30
     name rthumb
     direction -0.707107 -6.34843e-011 0.707107   
     length 0.760309   
     axis -90 -45 -5.05613e-014   XYZ
    dof rx rz
    limits (-45.0 45.0)
           (-45.0 45.0)
  end
:hierarchy
  begin
    root lhipjoint rhipjoint lowerback
    lhipjoint lfemur
    lfemur ltibia
    ltibia lfoot
    lfoot ltoes
    rhipjoint rfemur
    rfemur rtibia
    rtibia rfoot
    rfoot rtoes
    lowerback upperback
    upperback thorax
    thorax lowerneck lclavicle rclavicle
    lowerneck upperneck
    upperneck head
    lclavicle lhumerus
    lhumerus lradius
    lradius lwrist
    lwrist lhand lthumb
    lhand lfingers
    rclavicle rhumerus
    rhumerus rradius
    rradius rwrist
    rwrist rhand rthumb
    rhand rfingers
  end

#!OML:ASF H:\ManfredETheater\Project 1\Capture day 1\Session 1\subject.ASF
:FULLY-SPECIFIED
:DEGREES
1
root 2.68016 15.27 43.2292 -150.702 -8.7959 -172.517
lowerback 28.0051 1.25408 6.82197
upperback 3.50266 2.97469 0.928631
thorax -11.2534 0.750103 -3.89094
lowerneck -13.015 -4.09708 -4.24017
upperneck -5.08521 -5.48355 5.22212
head 0.875688 -2.87268 2.12953
rclavicle -2.3059e-014 -1.07344e-014
rhumerus -32.409 9.69441 -90.3215
rradius 66.5403
rwrist -1.72653
rhand -17.8542 -7.5337
rfingers 7.12502
rthumb 8.41105 -37.3462
lclavicle -2.3059e-014 -1.07344e-014
lhumerus -34.7989 -10.7258 87.2075
lradius 53.4564
lwrist 1.12489
lhand -22.7907 -4.50878
lfingers 7.12502
lthumb 3.64526 25.4398
rfemur -15.5596 -8.02629 27.7325
rtibia 55.2074
rfoot 5.94021 -6.8455
rtoes -31.8051
lfemur -78.6846 3.06394 -10.6097
ltibia 68.8815
lfoot -16.5363 -6.37291
ltoes 20.2215
2
root 2.63153 15.2911 42.9247 -150.468 -8.83895 -173.23
lowerback 28.2349 1.15703 6.39864
upperback 3.58062 2.71441 0.83654
thorax -11.3287 0.642189 -3.66653
lowerneck -12.8354 -4.07472 -4.2017
upperneck -5.24306 -5.46497 5.12155
head 0.787378 -2.87076 2.09488
rclavicle 3.08116e-015 1.33186e-014
rhumerus -32.6236 9.31031 -89.9883
rradius 66.9174
rwrist -1.35311
rhand -18.3959 -6.54005
rfingers 7.12502
rthumb 7.88827 -36.3729
lclavicle 3.08116e-015 1.33186e-014
lhumerus -34.4891 -11.4106 87.3513
lradius 54.0529
lwrist 0.838179
lhand -22.6514 -3.38674
lfingers 7.12502
lthumb 3.77974 26.5595
rfemur -18.7735 -9.23866 27.0947
rtibia 59.4541
rfoot 4.88574 -7.41667
rtoes -29.8996
lfemur -77.7546 2.90796 -11.6278
ltibia 69.2014
lfoot -17.7935 -6.62376
ltoes 19.4749
3
root 2.58674 15.3104 42.6139 -150.474 -9.07016 -174.123
lowerback 28.6087 0.972932 6.00174
upperback 3.80988 2.32043 0.748496
thorax -11.3099 0.466553 -3.40176
lowerneck -12.9791 -4.06104 -4.15435
upperneck -5.25556 -5.45779 4.98299
head 0.799946 -2.87271 2.03891
rclavicle -3.76697e-014 -1.44119e-014
rhumerus -32.7766 8.87419 -89.6124
rradius 67.5364
rwrist -1.12303
rhand -18.7066 -6.40819
rfingers 7.12502
rthumb 7.58836 -36.2521
lclavicle -3.76697e-014 -1.44119e-014
lhumerus -33.963 -11.9735 87.3819
lradius 54.3735
lwrist 0.687421
lhand -22.8213 -3.84635
lfingers 7.12502
lthumb 3.61563 26.1027
rfemur -21.4854 -10.6797 26.3987
rtibia 63.3392
rfoot 2.72761 -7.90747
rtoes -31.3517
lfemur -76.5094 2.53511 -12.6939
ltibia 69.4738
lfoot -19.0605 -7.18562
ltoes 21.7002
4
root 2.54031 15.3499 42.2968 -150.313 -9.12148 -174.871
lowerback 28.897 0.853079 5.56783
upperback 3.88182 2.02618 0.674374
thorax -11.4188 0.341191 -3.13456
lowerneck -13.0174 -4.01426 -4.1765
upperneck -5.24662 -5.39329 4.93606
head 0.805244 -2.84107 2.03026
rclavicle -1.21259e-014 3.57812e-015
rhumerus -33.1756 8.44499 -89.2615
rradius 68.3778
rwrist -1.12883
rhand -19.0632 -6.40241
rfingers 7.12502
rthumb 7.24416 -36.2584
lclavicle -1.21259e-014 3.57812e-015
lhumerus -33.6395 -12.4232 87.3772
lradius 54.7723
lwrist 0.233592
lhand -22.7932 -3.94855
lfingers 7.12502
lthumb 3.64278 26.0001
rfemur -24.4867 -12.0375 25.8448
rtibia 67.0621
rfoot -0.421907 -8.75278
rtoes -28.4122
lfemur -75.2707 2.3578 -13.6509
ltibia 69.7028
lfoot -20.3509 -7.30955
ltoes 18.7485
